- 
http://www.Speed.Cd
 
http://www.Speed.Cd       the fast  and The Hottest Private Tracker on the net

Please Seed back to make the speed Faster!!
 ............ NFO .............
-[img]http://i.imgur.com/1vhy2vP.jpg[/img]

Source: 720p BluRay x264-SPARKS
 
http://www.imdb.com/title/tt1446192

When the evil spirit Pitch launches an assault on Earth, the Immortal Guardians team up to protect the innocence of children all around the world.

General
Complete name                            : Rise Of The Guardians 2012 BRRip x264 AAC-OFFLiNE.mp4
Format                                   : MPEG-4
Format profile                           : Base Media
Codec ID                                 : isom
File size                                : 1.41 GiB
Duration                                 : 1h 37mn
Overall bit rate mode                    : Variable
Overall bit rate                         : 2 075 Kbps
Encoded date                             : UTC 2013-02-26 05:28:48
Tagged date                              : UTC 2013-02-26 05:28:48

Video
ID                                       : 1
Format                                   : AVC
Format/Info                              : Advanced Video Codec
Format profile                           : High@L4.1
Format settings, CABAC                   : Yes
Format settings, ReFrames                : 3 frames
Format settings, GOP                     : M=4, N=23
Codec ID                                 : avc1
Codec ID/Info                            : Advanced Video Coding
Duration                                 : 1h 37mn
Bit rate mode                            : Variable
Bit rate                                 : 1 724 Kbps
Maximum bit rate                         : 40.0 Mbps
Width                                    : 720 pixels
Height                                   : 400 pixels
Display aspect ratio                     : 16:9
Frame rate mode                          : Constant
Frame rate                               : 23.976 fps
Color space                              : YUV
Chroma subsampling                       : 4:2:0
Bit depth                                : 8 bits
Scan type                                : Progressive
Bits/(Pixel*Frame)                       : 0.250
Stream size                              : 1.17 GiB (83%)
Writing library                          : x264 core 129 r2245 bc13772

Audio
ID                                       : 2
Format                                   : AAC
Format/Info                              : Advanced Audio Codec
Format profile                           : LC
Codec ID                                 : 40
Duration                                 : 1h 37mn
Bit rate mode                            : Variable
Bit rate                                 : 353 Kbps
Maximum bit rate                         : 423 Kbps
Channel(s)                               : 6 channels
Channel positions                        : Front: L C R, Side: L R, LFE
Sampling rate                            : 48.0 KHz
Compression mode                         : Lossy
Stream size                              : 242 MiB (17%)
Language                                 : English
Encoded date                             : UTC 2013-02-26 01:08:56
Tagged date                              : UTC 2013-02-26 05:29:29

Subtitles: English.srt included in folder

[IMG]http://i.imgur.com/YkglOkC.png[/IMG]
[IMG]http://i.imgur.com/aeIzcmO.png[/IMG]
[IMG]http://i.imgur.com/h0Wuo7D.png[/IMG]
[IMG]http://i.imgur.com/Y00Vyro.png[/IMG]
[IMG]http://i.imgur.com/4iCIbR5.png[/IMG]

Greets: To Our Friends